<?xml version="1.0" encoding="UTF-8" standalone="no"?>
<!-- Created with Inkscape (http://www.inkscape.org/) -->

<svg
   xmlns:dc="http://purl.org/dc/elements/1.1/"
   xmlns:cc="http://creativecommons.org/ns#"
   xmlns:rdf="http://www.w3.org/1999/02/22-rdf-syntax-ns#"
   xmlns:svg="http://www.w3.org/2000/svg"
   xmlns="http://www.w3.org/2000/svg"
   xmlns:sodipodi="http://sodipodi.sourceforge.net/DTD/sodipodi-0.dtd"
   xmlns:inkscape="http://www.inkscape.org/namespaces/inkscape"
   width="399.49756"
   height="206.11858"
   id="svg2"
   version="1.1"
   inkscape:version="0.48.3.1 r9886"
   sodipodi:docname="gericht-hammer.svg">
  <defs
     id="defs4" />
  <sodipodi:namedview
     id="base"
     pagecolor="#ffffff"
     bordercolor="#666666"
     borderopacity="1.0"
     inkscape:pageopacity="0.0"
     inkscape:pageshadow="2"
     inkscape:zoom="0.98994949"
     inkscape:cx="-22.158595"
     inkscape:cy="64.872967"
     inkscape:document-units="px"
     inkscape:current-layer="layer1"
     showgrid="false"
     fit-margin-top="0"
     fit-margin-left="0"
     fit-margin-right="0"
     fit-margin-bottom="0"
     inkscape:window-width="1680"
     inkscape:window-height="1026"
     inkscape:window-x="0"
     inkscape:window-y="24"
     inkscape:window-maximized="1"
     showguides="true"
     inkscape:guide-bbox="true" />
  <metadata
     id="metadata7">
    <rdf:RDF>
      <cc:Work
         rdf:about="">
        <dc:format>image/svg+xml</dc:format>
        <dc:type
           rdf:resource="http://purl.org/dc/dcmitype/StillImage" />
        <dc:title></dc:title>
      </cc:Work>
    </rdf:RDF>
  </metadata>
  <g
     inkscape:label="Ebene 1"
     inkscape:groupmode="layer"
     id="layer1"
     transform="translate(-120.4683,-279.20665)">
    <path
       sodipodi:type="arc"
       style="fill:#f2f2f2;stroke:#000000;stroke-width:1.50000000000000000;stroke-miterlimit:4;stroke-opacity:1;stroke-dasharray:none"
       id="path2985"
       sodipodi:cx="175.26146"
       sodipodi:cy="417.98639"
       sodipodi:rx="54.043159"
       sodipodi:ry="65.659912"
       d="m 229.30462,417.98639 c 0,36.26297 -24.19595,65.65991 -54.04316,65.65991 -29.84721,0 -54.04316,-29.39694 -54.04316,-65.65991 0,-36.26297 24.19595,-65.65991 54.04316,-65.65991 29.84721,0 54.04316,29.39694 54.04316,65.65991 z"
       transform="matrix(-1,0,0,1,350.52292,0)" />
    <path
       style="fill:none;stroke:#000000;stroke-width:1px;stroke-linecap:butt;stroke-linejoin:miter;stroke-opacity:1"
       d="m 169.70561,456.37218 c -0.33671,-1.34687 0.33672,-4.37733 -1.01015,-4.04061 -1.34687,0.33672 2.25191,4.66149 1.01015,4.04061 -1.7561,-0.87805 -1.80394,-3.51762 -3.03045,-5.05076 -0.21035,-0.26293 -0.77206,0.23809 -1.01016,0 -0.23809,-0.2381 0.2381,-0.77206 0,-1.01015 -0.2764,-0.2764 -3.49261,0.27399 -4.04061,0 -0.42591,-0.21296 -0.58423,-0.7972 -1.01015,-1.01016 -0.3653,-0.18265 -4.34816,0 -5.05076,0 -0.33672,0 -0.77206,0.2381 -1.01015,0 -0.2381,-0.23809 0.23809,-0.77205 0,-1.01015 -0.2381,-0.23809 -0.67344,0 -1.01016,0 -0.33671,0 -0.67343,0 -1.01015,0 -0.33672,0 -0.67343,0 -1.01015,0 -0.33672,0 -0.77206,-0.23809 -1.01015,0 -0.2381,0.2381 0.23809,0.77206 0,1.01015 -0.50508,0.50508 -2.52539,-0.50507 -3.03046,0 -1.34687,1.34687 1.68359,1.01016 -1.01015,1.01016 -1.34687,0 -2.69374,0 -4.04061,0 -0.33672,0 -0.77206,-0.2381 -1.01016,0 -0.23809,0.23809 0.2381,0.77205 0,1.01015 -0.47619,0.47619 -1.41796,-0.30117 -2.0203,0 -4.20401,2.102 1.07989,-0.0697 -1.01015,2.0203 -0.4762,0.47619 -1.54412,-0.47619 -2.02031,0 -0.50508,0.50508 0.50508,2.52538 0,3.03046 -0.23809,0.2381 -0.67343,0 -1.01015,0"
       id="path3763"
       inkscape:connector-curvature="0" />
    <path
       sodipodi:type="arc"
       style="fill:#000000;fill-opacity:1;stroke:#000000;stroke-width:1.5;stroke-miterlimit:4;stroke-opacity:1;stroke-dasharray:none"
       id="path3765"
       sodipodi:cx="190.91884"
       sodipodi:cy="382.63104"
       sodipodi:rx="10.101525"
       sodipodi:ry="5.0507627"
       d="m 201.02036,382.63104 c 0,2.78946 -4.5226,5.05077 -10.10152,5.05077 -5.57892,0 -10.10153,-2.26131 -10.10153,-5.05077 0,-2.78946 4.52261,-5.05076 10.10153,-5.05076 5.57892,0 10.10152,2.2613 10.10152,5.05076 z"
       transform="matrix(-1,0,0,1,350.52292,0)" />
    <path
       transform="translate(289.91124,0.9289267)"
       sodipodi:type="arc"
       style="fill:#f9f9f9;stroke:#000000;stroke-width:1.50000000000000000;stroke-miterlimit:4;stroke-opacity:1;stroke-dasharray:none"
       id="path2985-3"
       sodipodi:cx="175.26146"
       sodipodi:cy="417.98639"
       sodipodi:rx="54.043159"
       sodipodi:ry="65.659912"
       d="m 229.30462,417.98639 c 0,36.26297 -24.19595,65.65991 -54.04316,65.65991 -29.84721,0 -54.04316,-29.39694 -54.04316,-65.65991 0,-36.26297 24.19595,-65.65991 54.04316,-65.65991 29.84721,0 54.04316,29.39694 54.04316,65.65991 z" />
    <path
       transform="translate(289.91124,0.9289267)"
       sodipodi:type="arc"
       style="fill:#000000;fill-opacity:1;stroke:#000000;stroke-width:1.5;stroke-miterlimit:4;stroke-opacity:1;stroke-dasharray:none"
       id="path3765-0"
       sodipodi:cx="190.91884"
       sodipodi:cy="382.63104"
       sodipodi:rx="10.101525"
       sodipodi:ry="5.0507627"
       d="m 201.02036,382.63104 c 0,2.78946 -4.5226,5.05077 -10.10152,5.05077 -5.57892,0 -10.10153,-2.26131 -10.10153,-5.05077 0,-2.78946 4.52261,-5.05076 10.10153,-5.05076 5.57892,0 10.10152,2.2613 10.10152,5.05076 z" />
    <path
       transform="translate(146.81476,-61.335039)"
       sodipodi:type="arc"
       style="fill:#f9f9f9;stroke:#000000;stroke-width:1.50000000000000000;stroke-miterlimit:4;stroke-opacity:1;stroke-dasharray:none"
       id="path2985-8"
       sodipodi:cx="175.26146"
       sodipodi:cy="417.98639"
       sodipodi:rx="54.043159"
       sodipodi:ry="65.659912"
       d="m 229.30462,417.98639 c 0,36.26297 -24.19595,65.65991 -54.04316,65.65991 -29.84721,0 -54.04316,-29.39694 -54.04316,-65.65991 0,-36.26297 24.19595,-65.65991 54.04316,-65.65991 29.84721,0 54.04316,29.39694 54.04316,65.65991 z" />
    <path
       transform="matrix(0.52974983,0,0,1,203.84413,-61.335039)"
       sodipodi:type="arc"
       style="fill:#000000;fill-opacity:1;stroke:#000000;stroke-width:1.5;stroke-miterlimit:4;stroke-opacity:1;stroke-dasharray:none"
       id="path3765-04"
       sodipodi:cx="190.91884"
       sodipodi:cy="382.63104"
       sodipodi:rx="10.101525"
       sodipodi:ry="5.0507627"
       d="m 201.02036,382.63104 c 0,2.78946 -4.5226,5.05077 -10.10152,5.05077 -5.57892,0 -10.10153,-2.26131 -10.10153,-5.05077 0,-2.78946 4.52261,-5.05076 10.10153,-5.05076 5.57892,0 10.10152,2.2613 10.10152,5.05076 z" />
    <path
       transform="matrix(0.52974983,0,0,1,239.14005,-61.355336)"
       sodipodi:type="arc"
       style="fill:#000000;fill-opacity:1;stroke:#000000;stroke-width:1.5;stroke-miterlimit:4;stroke-opacity:1;stroke-dasharray:none"
       id="path3765-04-2"
       sodipodi:cx="190.91884"
       sodipodi:cy="382.63104"
       sodipodi:rx="10.101525"
       sodipodi:ry="5.0507627"
       d="m 201.02036,382.63104 c 0,2.78946 -4.5226,5.05077 -10.10152,5.05077 -5.57892,0 -10.10153,-2.26131 -10.10153,-5.05077 0,-2.78946 4.52261,-5.05076 10.10153,-5.05076 5.57892,0 10.10152,2.2613 10.10152,5.05076 z" />
    <path
       style="fill:none;stroke:#000000;stroke-width:1px;stroke-linecap:butt;stroke-linejoin:miter;stroke-opacity:1"
       d="m 301.02546,388.69196 c 1.68359,0 3.36717,0 5.05076,0 0.33672,0 0.77206,0.2381 1.01015,0 0.2381,-0.23809 -0.23809,-0.77206 0,-1.01015 0.2381,-0.2381 0.67344,0 1.01016,0 0.67343,0 1.34687,0 2.0203,0 1.01015,0 2.05047,-0.245 3.03046,0 0.73044,0.18261 1.30602,0.77206 2.0203,1.01015 0.56993,0.18998 2.36668,0 3.03046,0 0.33672,0 0.67344,0 1.01015,0 0.33672,0 0.77206,0.2381 1.01016,0 0.23809,-0.23809 -0.2381,-0.77206 0,-1.01015 0.36286,-0.36286 3.38709,0.32676 4.04061,0 0.30117,-0.15059 -0.2381,-0.77206 0,-1.01015 0.23809,-0.2381 0.70898,0.15058 1.01015,0 0.42592,-0.21296 0.5584,-0.85957 1.01015,-1.01016 0.6007,-0.20023 4.86772,0 6.06092,0 0.24499,0 2.99797,-0.0325 3.03046,0 0.23809,0.2381 -0.2381,0.77206 0,1.01016 0.24307,0.24307 3.79753,-0.24308 4.04061,0 0.23809,0.23809 -0.2381,0.77205 0,1.01015 0.20651,0.20651 2.62994,-0.20026 3.03045,0 0.42592,0.21296 0.58424,0.79719 1.01016,1.01015 0.36782,0.18391 4.04061,-0.17711 4.04061,0 0,0.33672 -1.34687,0 -1.01016,0 0.67344,0 1.34687,0 2.02031,0"
       id="path3820"
       inkscape:connector-curvature="0" />
    <path
       style="fill:#666666;fill-opacity:1;stroke:#000000;stroke-width:1.5;stroke-miterlimit:4;stroke-opacity:1;stroke-dasharray:none"
       id="path3870"
       d="m 309.38565,292.08472 c -2.54711,-0.0609 -5.09547,-0.0398 -7.64309,-0.0323 -1.91824,-0.10127 -3.69074,0.52833 -5.40949,1.27142 -4.67806,2.91968 0.0108,-0.019 11.31174,-6.4452 0.28622,-0.16276 -0.55738,0.35066 -0.83542,0.52703 -0.78665,0.499 -1.41111,0.99378 -2.05899,1.66205 -1.19952,1.28642 -1.95832,2.88202 -3.23289,4.10391 -1.04302,1.03866 -2.27175,1.85857 -3.15239,3.04822 -0.88056,1.19114 -2.10846,1.97039 -3.31057,2.78483 -4.10535,4.1435 -8.44729,5.10788 -14.56941,8.79222 -4.02172,2.42031 8.14345,-4.67042 12.21666,-7.00305 0.40329,-0.23096 -0.77953,0.51168 -1.12916,0.81787 -1.17089,1.03215 -2.24697,2.16905 -3.35044,3.2741 -1.11296,1.0631 -1.9993,2.29457 -2.85692,3.56509 -0.94432,1.09061 -2.10838,1.99518 -3.24716,2.87985 -1.19172,0.8411 -1.8963,2.12602 -2.95314,3.09345 -1.28107,1.17832 -1.93106,2.79564 -2.60712,4.35718 -0.84917,1.59904 -1.49782,3.2334 -1.97746,4.97586 -0.57792,1.66666 -1.03906,3.37144 -1.51875,5.06863 -0.51061,1.89128 -0.62724,3.84962 -0.70364,5.7973 -0.0408,2.06153 0.0203,4.11124 -0.27658,6.1558 -0.27214,1.90964 -0.56022,3.79687 -1.06209,5.6601 -0.40835,1.76469 -1.60264,3.0658 -2.94067,4.20735 -10.49975,6.16562 -10.15751,9.33877 -17.77423,6.90131 -1.74075,-0.88101 -3.16419,-2.31068 -4.21441,-3.93897 0,0 12.92554,-7.55212 12.92554,-7.55212 l 0,0 c 0.8797,1.34645 2.0866,2.52903 3.63919,3.04341 0.9452,0.24878 1.98456,0.50715 2.95873,0.2162 0.20625,-0.0616 0.77555,-0.3716 0.59006,-0.26238 -4.01503,2.36397 -8.05473,4.68577 -12.08209,7.02866 1.42064,-0.654 2.65234,-1.80911 3.39313,-3.18786 0.45925,-1.84733 1.01739,-3.63372 1.15148,-5.55141 0.36246,-1.98835 0.39953,-3.95827 0.35999,-5.98084 0.0511,-2.03895 0.12515,-4.08873 0.5493,-6.09101 0.41366,-1.73959 0.94583,-3.44716 1.44612,-5.16032 0.70233,-1.66699 0.76932,-3.59372 1.97451,-5.06107 0.63346,-1.69463 1.28707,-3.3832 2.30938,-4.88626 1.46807,-1.59384 -0.48257,0.43412 1.06737,-0.90561 0.75029,-0.64853 0.87363,-1.80417 1.87238,-2.22014 0.93455,-1.07365 2.15593,-1.9156 3.32247,-2.71001 1.10441,-1.10207 1.59932,-2.65765 2.85306,-3.62342 0.9838,-1.25708 2.22815,-2.25261 3.24605,-3.46799 5.48867,-4.48264 -6.45901,1.54337 14.52513,-8.80682 4.2087,-2.07589 -8.10942,4.72521 -12.15634,7.10111 -0.40332,0.23678 1.68278,-0.85344 1.15543,-0.79596 0.88313,-1.19862 2.30266,-1.62327 3.3748,-2.63577 1.14313,-1.26563 -0.19965,0.30283 0.85474,-1.22505 0.5585,-0.80929 1.51487,-1.35237 2.25134,-1.97345 2.30232,-2.36411 -1.1976,1.159 1.20868,-1.03146 0.89726,-0.81677 1.38188,-2.07873 2.04257,-3.06883 0.8484,-0.83311 0.44213,-0.37888 1.2088,-1.37157 0.58294,-0.61545 0.85576,-0.70746 1.57823,-1.12718 13.84537,-8.04353 8.75489,-5.90334 14.40725,-8.23275 1.81587,-0.64457 3.75009,-0.83538 5.67057,-0.7679 2.57726,0.008 5.15518,0.0276 7.73196,-0.0323 0,0 -12.13421,8.81603 -12.13421,8.81603 z"
       inkscape:connector-curvature="0" />
    <path
       style="fill:#666666;fill-opacity:1;stroke:#000000;stroke-width:1.5;stroke-miterlimit:4;stroke-opacity:1;stroke-dasharray:none"
       id="path3874"
       d="m 316.26379,289.84218 c -2.4746,-0.38948 -4.94575,-0.55751 -7.38973,-1.11672 -1.69237,-0.14683 -3.2815,0.19037 -4.89413,0.6207 -4.56609,2.43925 -10.49562,5.82242 10.67527,-6.14534 0.22899,-0.12945 -0.44239,0.28472 -0.66313,0.42778 -0.81204,0.52629 -0.44133,0.25329 -1.19139,0.89071 -1.44839,1.09023 -3.05296,1.956 -4.53469,3.00378 -8.15508,5.48332 -31.19826,18.27435 -4.57249,2.97072 -8.30041,5.24798 -31.09804,18.04608 -4.72243,2.9156 -10.08368,9.94356 -9.19144,6.04651 -15.30593,8.3916 -0.78355,0.30051 -1.45038,0.68978 -2.27214,0.92715 -4.63319,2.92723 0.0245,-0.0287 11.50366,-6.54094 0.25016,-0.14192 -0.48324,0.31203 -0.72518,0.46755 -0.81359,0.52297 -1.45737,1.07758 -2.1473,1.75869 -1.3662,1.73933 -2.48129,3.67734 -3.5437,5.61472 -0.77534,1.43602 -1.53363,2.87929 -2.2693,4.33589 -0.58863,1.3745 -1.38001,2.65402 -2.36343,3.779 -1.05932,1.35532 -1.58686,3.04968 -2.26773,4.61458 -0.83784,1.80934 -1.0094,3.7853 -1.29646,5.72798 -0.4706,1.70293 -0.68841,3.44901 -0.96051,5.18882 -0.3143,1.71614 -0.93144,3.29565 -1.80027,4.79994 -0.93256,1.55392 -1.91336,3.10588 -2.61289,4.78201 -0.19913,0.31149 -1.06338,3.00818 -1.21315,3.06152 -0.0533,0.019 -0.0513,-0.10091 -0.077,-0.15137 -2.45517,7.26088 -10.65531,5.93016 -15.57964,9.22633 -1.73893,0.95945 -2.97025,0.73645 -4.7162,0.0478 -1.38461,-0.99223 -2.91434,-1.89237 -4.05444,-3.17653 -0.59368,-0.75633 -0.84909,-1.60943 -1.05645,-2.52597 0,0 13.27195,-6.99159 13.27195,-6.99159 l 0,0 c -0.003,0.67055 0.15886,1.19549 0.58999,1.73233 1.02777,1.03237 2.33267,1.93601 3.65678,2.5223 1.46987,0.34756 2.7307,-0.26859 3.99592,-1.00401 0.84065,-0.34852 1.57316,-0.61294 2.49364,-0.63516 0.17026,-0.004 0.65023,-0.0612 0.50971,0.035 -4.05766,2.7787 -8.23281,5.38181 -12.34922,8.07272 -0.51851,-1.30345 0.42901,-2.68884 0.97546,-3.86819 0.53179,-1.85752 1.56468,-3.4269 2.47403,-5.11443 0.96015,-1.3168 1.67659,-2.71113 2.00017,-4.31727 0.53025,-1.66916 0.3465,-3.50836 0.98603,-5.16939 0.54912,-1.95544 0.35824,-4.08874 1.19698,-5.99045 0.66003,-1.66676 1.37516,-3.31103 2.03955,-4.97201 0.8403,-1.15022 1.91612,-2.09975 2.54083,-3.41354 0.56011,-1.56013 1.44301,-3.00458 2.27566,-4.43032 0.93349,-2.09675 2.31894,-3.95086 3.41159,-5.96778 0.76644,-1.04569 1.53075,-1.94183 2.66005,-2.59772 13.69872,-7.95608 8.62039,-6.09115 14.26612,-8.10834 5.28543,-2.20028 14.19774,-6.4806 -8.18504,5.28062 14.10692,-8.15121 21.17095,-12.24998 1.69375,-0.9338 -0.28241,0.16408 0.57355,-0.3146 0.84417,-0.49747 1.32427,-0.89487 0.18638,-0.28558 1.47111,-1.06318 0.2279,-0.13794 0.46895,-0.25288 0.70343,-0.37932 4.50029,-2.6176 8.98786,-5.25718 13.50087,-7.85278 4.02143,-2.31288 -8.01236,4.67839 -12.0261,7.00458 -0.25743,0.14919 0.51523,-0.29962 0.75676,-0.47338 3.06864,-2.20763 -1.66391,0.98077 1.58601,-1.06458 0.27324,-0.17196 0.52411,-0.37714 0.78617,-0.56571 1.51417,-0.95855 2.90211,-2.12664 4.54511,-2.8765 2.44863,-1.81621 -1.32846,1.04224 1.1443,-1.03228 4.58598,-3.8474 10.07423,-7.05994 15.84464,-8.79387 1.73129,-0.36501 3.52013,-0.45328 5.25671,-0.0536 2.44497,0.5122 4.94188,0.63755 7.41008,1.00987 0,0 -12.27641,8.61322 -12.27641,8.61322 z"
       inkscape:connector-curvature="0" />
    <path
       style="fill:#666666;fill-opacity:1;stroke:#000000;stroke-width:1.5;stroke-miterlimit:4;stroke-opacity:1;stroke-dasharray:none"
       id="path3874-0"
       d="m 333.33936,290.80655 c 2.4746,-0.38948 4.94575,-0.55751 7.38973,-1.11672 1.69237,-0.14683 3.2815,0.19037 4.89413,0.6207 4.56609,2.43925 10.49562,5.82242 -10.67527,-6.14534 -0.22899,-0.12945 0.44239,0.28472 0.66313,0.42778 0.81204,0.52629 0.44133,0.25329 1.19139,0.89071 1.44839,1.09023 3.05296,1.956 4.53469,3.00378 8.15508,5.48332 31.19826,18.27435 4.57249,2.97072 8.30041,5.24798 31.09804,18.04608 4.72243,2.9156 10.08368,9.94356 9.19144,6.04651 15.30593,8.3916 0.78355,0.30051 1.45038,0.68978 2.27214,0.92715 4.63319,2.92723 -0.0245,-0.0287 -11.50366,-6.54094 -0.25016,-0.14192 0.48324,0.31203 0.72518,0.46755 0.81359,0.52297 1.45737,1.07758 2.1473,1.75869 1.3662,1.73933 2.48129,3.67734 3.5437,5.61472 0.77534,1.43602 1.53363,2.87929 2.2693,4.33589 0.58863,1.3745 1.38001,2.65402 2.36343,3.779 1.05932,1.35532 1.58686,3.04968 2.26773,4.61458 0.83784,1.80934 1.0094,3.7853 1.29646,5.72798 0.4706,1.70293 0.68841,3.44901 0.96051,5.18882 0.3143,1.71614 0.93144,3.29565 1.80027,4.79994 0.93256,1.55392 1.91336,3.10588 2.61289,4.78201 0.19913,0.31149 1.06338,3.00818 1.21315,3.06152 0.0533,0.019 0.0513,-0.10091 0.077,-0.15137 2.45517,7.26088 10.65531,5.93016 15.57964,9.22633 1.73893,0.95945 2.97025,0.73645 4.7162,0.0478 1.38461,-0.99223 2.91434,-1.89237 4.05444,-3.17653 0.59368,-0.75633 0.84909,-1.60943 1.05645,-2.52597 0,0 -13.27195,-6.99159 -13.27195,-6.99159 l 0,0 c 0.003,0.67055 -0.15886,1.19549 -0.58999,1.73233 -1.02777,1.03237 -2.33267,1.93601 -3.65678,2.5223 -1.46987,0.34756 -2.7307,-0.26859 -3.99592,-1.00401 -0.84065,-0.34852 -1.57316,-0.61294 -2.49364,-0.63516 -0.17026,-0.004 -0.65023,-0.0612 -0.50971,0.035 4.05766,2.7787 8.23281,5.38181 12.34922,8.07272 0.51851,-1.30345 -0.42901,-2.68884 -0.97546,-3.86819 -0.53179,-1.85752 -1.56468,-3.4269 -2.47403,-5.11443 -0.96015,-1.3168 -1.67659,-2.71113 -2.00017,-4.31727 -0.53025,-1.66916 -0.3465,-3.50836 -0.98603,-5.16939 -0.54912,-1.95544 -0.35824,-4.08874 -1.19698,-5.99045 -0.66003,-1.66676 -1.37516,-3.31103 -2.03955,-4.97201 -0.8403,-1.15022 -1.91612,-2.09975 -2.54083,-3.41354 -0.56011,-1.56013 -1.44301,-3.00458 -2.27566,-4.43032 -0.93349,-2.09675 -2.31894,-3.95086 -3.41159,-5.96778 -0.76644,-1.04569 -1.53075,-1.94183 -2.66005,-2.59772 -13.69872,-7.95608 -8.62039,-6.09115 -14.26612,-8.10834 -5.28543,-2.20028 -14.19774,-6.4806 8.18504,5.28062 -14.10692,-8.15121 -21.17095,-12.24998 -1.69375,-0.9338 0.28241,0.16408 -0.57355,-0.3146 -0.84417,-0.49747 -1.32427,-0.89487 -0.18638,-0.28558 -1.47111,-1.06318 -0.2279,-0.13794 -0.46895,-0.25288 -0.70343,-0.37932 -4.50029,-2.6176 -8.98786,-5.25718 -13.50087,-7.85278 -4.02143,-2.31288 8.01236,4.67839 12.0261,7.00458 0.25743,0.14919 -0.51523,-0.29962 -0.75676,-0.47338 -3.06864,-2.20763 1.66391,0.98077 -1.58601,-1.06458 -0.27324,-0.17196 -0.52411,-0.37714 -0.78617,-0.56571 -1.51417,-0.95855 -2.90211,-2.12664 -4.54511,-2.8765 -2.44863,-1.81621 1.32846,1.04224 -1.1443,-1.03228 -4.58598,-3.8474 -10.07423,-7.05994 -15.84464,-8.79387 -1.73129,-0.36501 -3.52013,-0.45328 -5.25671,-0.0536 -2.44497,0.5122 -4.94188,0.63755 -7.41008,1.00987 0,0 12.27641,8.61322 12.27641,8.61322 z"
       inkscape:connector-curvature="0" />
    <path
       style="fill:#666666;fill-opacity:1;stroke:#000000;stroke-width:1.5;stroke-miterlimit:4;stroke-opacity:1;stroke-dasharray:none"
       id="path3870-7"
       d="m 329.57476,290.2563 c 2.54711,-0.0609 5.09547,-0.0398 7.64309,-0.0323 1.91824,-0.10127 3.69074,0.52833 5.40949,1.27142 4.67806,2.91968 -0.0108,-0.019 -11.31174,-6.4452 -0.28622,-0.16276 0.55738,0.35066 0.83542,0.52703 0.78665,0.499 1.41111,0.99378 2.05899,1.66205 1.19952,1.28642 1.95832,2.88202 3.23289,4.10391 1.04302,1.03866 2.27175,1.85857 3.15239,3.04822 0.88056,1.19114 2.10846,1.97039 3.31057,2.78483 4.10535,4.1435 8.44729,5.10788 14.56941,8.79222 4.02172,2.42031 -8.14345,-4.67042 -12.21666,-7.00305 -0.40329,-0.23096 0.77953,0.51168 1.12916,0.81787 1.17089,1.03215 2.24697,2.16905 3.35044,3.2741 1.11296,1.0631 1.9993,2.29457 2.85692,3.56509 0.94432,1.09061 2.10838,1.99518 3.24716,2.87985 1.19172,0.8411 1.8963,2.12602 2.95314,3.09345 1.28107,1.17832 1.93106,2.79564 2.60712,4.35718 0.84917,1.59904 1.49782,3.2334 1.97746,4.97586 0.57792,1.66666 1.03906,3.37144 1.51875,5.06863 0.51061,1.89128 0.62724,3.84962 0.70364,5.7973 0.0408,2.06153 -0.0203,4.11124 0.27658,6.1558 0.27214,1.90964 0.56022,3.79687 1.06209,5.6601 0.40835,1.76469 1.60264,3.0658 2.94067,4.20735 10.49975,6.16562 10.15751,9.33877 17.77423,6.90131 1.74075,-0.88101 3.16419,-2.31068 4.21441,-3.93897 0,0 -12.92554,-7.55212 -12.92554,-7.55212 l 0,0 c -0.8797,1.34645 -2.0866,2.52903 -3.63919,3.04341 -0.9452,0.24878 -1.98456,0.50715 -2.95873,0.2162 -0.20625,-0.0616 -0.77555,-0.3716 -0.59006,-0.26238 4.01503,2.36397 8.05473,4.68577 12.08209,7.02866 -1.42064,-0.654 -2.65234,-1.80911 -3.39313,-3.18786 -0.45925,-1.84733 -1.01739,-3.63372 -1.15148,-5.55141 -0.36246,-1.98835 -0.39953,-3.95827 -0.35999,-5.98084 -0.0511,-2.03895 -0.12515,-4.08873 -0.5493,-6.09101 -0.41366,-1.73959 -0.94583,-3.44716 -1.44612,-5.16032 -0.70233,-1.66699 -0.76932,-3.59372 -1.97451,-5.06107 -0.63346,-1.69463 -1.28707,-3.3832 -2.30938,-4.88626 -1.46807,-1.59384 0.48257,0.43412 -1.06737,-0.90561 -0.75029,-0.64853 -0.87363,-1.80417 -1.87238,-2.22014 -0.93455,-1.07365 -2.15593,-1.9156 -3.32247,-2.71001 -1.10441,-1.10207 -1.59932,-2.65765 -2.85306,-3.62342 -0.9838,-1.25708 -2.22815,-2.25261 -3.24605,-3.46799 -5.48867,-4.48264 6.45901,1.54337 -14.52513,-8.80682 -4.2087,-2.07589 8.10942,4.72521 12.15634,7.10111 0.40332,0.23678 -1.68278,-0.85344 -1.15543,-0.79596 -0.88313,-1.19862 -2.30266,-1.62327 -3.3748,-2.63577 -1.14313,-1.26563 0.19965,0.30283 -0.85474,-1.22505 -0.5585,-0.80929 -1.51487,-1.35237 -2.25134,-1.97345 -2.30232,-2.36411 1.1976,1.159 -1.20868,-1.03146 -0.89726,-0.81677 -1.38188,-2.07873 -2.04257,-3.06883 -0.8484,-0.83311 -0.44213,-0.37888 -1.2088,-1.37157 -0.58294,-0.61545 -0.85576,-0.70746 -1.57823,-1.12718 -13.84537,-8.04353 -8.75489,-5.90334 -14.40725,-8.23275 -1.81587,-0.64457 -3.75009,-0.83538 -5.67057,-0.7679 -2.57726,0.008 -5.15518,0.0276 -7.73196,-0.0323 0,0 12.13421,8.81603 12.13421,8.81603 z"
       inkscape:connector-curvature="0" />
    <path
       style="fill:#333333;stroke:#000000;stroke-width:1px;stroke-linecap:butt;stroke-linejoin:miter;stroke-opacity:1"
       d="m 333.61048,425.72622 c 42.42641,-62.62946 54.54824,-57.5787 54.54824,-57.5787 l -47.47717,63.63961 -8.08122,2.02031 z"
       id="path3986"
       inkscape:connector-curvature="0" />
    <rect
       style="fill:#666666;fill-opacity:1;stroke:#000000;stroke-width:1.5;stroke-miterlimit:4;stroke-opacity:1;stroke-dasharray:none"
       id="rect3947-1"
       width="30.304575"
       height="58.588848"
       x="310.37698"
       y="400.47241" />
    <path
       style="fill:none;stroke:#000000;stroke-width:1px;stroke-linecap:butt;stroke-linejoin:miter;stroke-opacity:1"
       d="m 289.16378,475.27153 c 1.34687,-1.34688 2.69374,-2.69375 4.04061,-4.04062 0.33671,0 0.69071,0.10648 1.01015,0 0.71428,-0.23809 1.30602,-0.77205 2.0203,-1.01015 0.31944,-0.10648 0.77206,0.2381 1.01016,0 4.82858,-4.82858 -2.88871,-0.0472 3.03045,-2.0203 0.45176,-0.15059 0.54321,-0.91677 1.01016,-1.01016 1.32071,-0.26414 2.73395,0.32667 4.04061,0 0.32666,-0.0817 -0.28017,-0.82337 0,-1.01015 1.21946,-2.43716 3.51509,-0.24232 5.05076,-1.01015 0.30117,-0.15059 -0.30117,-0.85957 0,-1.01015 0.60234,-0.30117 1.38143,0.21296 2.0203,0 0.45176,-0.15059 0.58424,-0.7972 1.01016,-1.01016 0.30117,-0.15058 0.67343,0 1.01015,0 0.33672,0 0.67343,0 1.01015,0 1.68359,0 3.36718,0 5.05076,0 4.37733,0 8.75466,0 13.13199,0 2.35702,0 4.71404,0 7.07107,0 0.8906,0 2.16973,-0.21518 3.03045,0 1.033,0.25826 1.99746,0.75191 3.03046,1.01016 0.32666,0.0817 0.77206,-0.2381 1.01015,0 0.85847,0.85846 1.16184,2.17199 2.02031,3.03045 0.5324,0.5324 1.39383,0.59251 2.0203,1.01016 0.39622,0.26414 0.58424,0.79719 1.01016,1.01015 2.48795,1.24398 -0.9119,-2.93221 3.03045,1.01015 0.2381,0.2381 -0.23809,0.77206 0,1.01015 0.2381,0.2381 0.77206,-0.23809 1.01016,0 0.53239,0.5324 0.47775,1.48791 1.01015,2.02031 0.23809,0.2381 0.77206,-0.2381 1.01015,0 0.2381,0.2381 -0.23809,0.77206 0,1.01015 0.2381,0.2381 0.70898,-0.15058 1.01015,0 0.26821,0.13411 2.89636,2.76225 3.03046,3.03046 0.15059,0.30117 -0.23809,0.77206 0,1.01015 0.99649,0.9965 2.02031,-2.06988 2.02031,1.01016"
       id="path4010"
       inkscape:connector-curvature="0" />
    <path
       style="fill:none;stroke:#000000;stroke-width:1px;stroke-linecap:butt;stroke-linejoin:miter;stroke-opacity:1"
       d="m 286.63839,471.27874 c 1.34687,-1.34688 2.69374,-2.69375 4.04061,-4.04062 0.33671,0 0.69071,0.10648 1.01015,0 0.71428,-0.23809 1.30602,-0.77205 2.0203,-1.01015 0.31944,-0.10648 0.77206,0.2381 1.01016,0 4.82858,-4.82858 -2.88871,-0.0472 3.03045,-2.0203 0.45176,-0.15059 0.54321,-0.91677 1.01016,-1.01016 1.32071,-0.26414 2.73395,0.32667 4.04061,0 0.32666,-0.0817 -0.28017,-0.82337 0,-1.01015 1.21946,-2.43716 3.51509,-0.24232 5.05076,-1.01015 0.30117,-0.15059 -0.30117,-0.85957 0,-1.01015 0.60234,-0.30117 1.38143,0.21296 2.0203,0 0.45176,-0.15059 0.58424,-0.7972 1.01016,-1.01016 0.30117,-0.15058 0.67343,0 1.01015,0 0.33672,0 0.67343,0 1.01015,0 1.68359,0 3.36718,0 5.05076,0 4.37733,0 8.75466,0 13.13199,0 2.35702,0 4.71404,0 7.07107,0 0.8906,0 2.16973,-0.21518 3.03045,0 1.033,0.25826 1.99746,0.75191 3.03046,1.01016 0.32666,0.0817 0.77206,-0.2381 1.01015,0 0.85847,0.85846 1.16184,2.17199 2.02031,3.03045 0.5324,0.5324 1.39383,0.59251 2.0203,1.01016 0.39622,0.26414 0.58424,0.79719 1.01016,1.01015 2.48795,1.24398 -0.9119,-2.93221 3.03045,1.01015 0.2381,0.2381 -0.23809,0.77206 0,1.01015 0.2381,0.2381 0.77206,-0.23809 1.01016,0 0.53239,0.5324 0.47775,1.48791 1.01015,2.02031 0.23809,0.2381 0.77206,-0.2381 1.01015,0 0.2381,0.2381 -0.23809,0.77206 0,1.01015 0.2381,0.2381 0.70898,-0.15058 1.01015,0 0.26821,0.13411 2.89636,2.76225 3.03046,3.03046 0.15059,0.30117 -0.23809,0.77206 0,1.01015 0.99649,0.9965 2.02031,-2.06988 2.02031,1.01016"
       id="path4010-4"
       inkscape:connector-curvature="0" />
    <path
       style="fill:none;stroke:#000000;stroke-width:1px;stroke-linecap:butt;stroke-linejoin:miter;stroke-opacity:1"
       d="m 360.62446,170.76324 c 0.67343,1.34687 3.36717,3.36717 2.0203,4.04061 -1.34687,0.67343 -3.52615,-4.04061 -2.0203,-4.04061 1.90476,0 2.55324,2.85071 4.04061,4.04061 0.45221,0.36177 3.38704,-0.32679 4.04061,0 0.42592,0.21296 0.58423,0.79719 1.01015,1.01015 0.53562,0.26781 4.36356,-0.22907 5.05076,0 0.45176,0.15058 0.58424,0.79719 1.01016,1.01015 0.30117,0.15059 0.67343,0 1.01015,0 0.33672,0 0.67343,0 1.01015,0 1.68359,0 3.36718,0 5.05076,0 0.33672,0 0.77206,0.2381 1.01016,0 0.23809,-0.23809 -0.2381,-0.77206 0,-1.01015 0.23809,-0.2381 0.67343,0 1.01015,0 0,-0.33672 -0.2381,-0.77206 0,-1.01015 0.2381,-0.2381 0.77206,-0.2381 1.01015,0 0.2381,0.23809 0,0.67343 0,1.01015"
       id="path4034"
       inkscape:connector-curvature="0"
       transform="translate(120.4683,279.20665)" />
  </g>
</svg>
