<?xml version="1.0" encoding="UTF-8" standalone="no"?>
<!-- Created with Inkscape (http://www.inkscape.org/) -->

<svg
   xmlns:dc="http://purl.org/dc/elements/1.1/"
   xmlns:cc="http://creativecommons.org/ns#"
   xmlns:rdf="http://www.w3.org/1999/02/22-rdf-syntax-ns#"
   xmlns:svg="http://www.w3.org/2000/svg"
   xmlns="http://www.w3.org/2000/svg"
   xmlns:sodipodi="http://sodipodi.sourceforge.net/DTD/sodipodi-0.dtd"
   xmlns:inkscape="http://www.inkscape.org/namespaces/inkscape"
   width="399.49756"
   height="206.11858"
   id="svg2"
   version="1.1"
   inkscape:version="0.48.3.1 r9886"
   sodipodi:docname="mediation-alternative.svg">
  <defs
     id="defs4" />
  <sodipodi:namedview
     id="base"
     pagecolor="#ffffff"
     bordercolor="#666666"
     borderopacity="1.0"
     inkscape:pageopacity="0.0"
     inkscape:pageshadow="2"
     inkscape:zoom="0.98994949"
     inkscape:cx="87.279873"
     inkscape:cy="64.872965"
     inkscape:document-units="px"
     inkscape:current-layer="layer1"
     showgrid="false"
     fit-margin-top="0"
     fit-margin-left="0"
     fit-margin-right="0"
     fit-margin-bottom="0"
     inkscape:window-width="1680"
     inkscape:window-height="1026"
     inkscape:window-x="0"
     inkscape:window-y="24"
     inkscape:window-maximized="1" />
  <metadata
     id="metadata7">
    <rdf:RDF>
      <cc:Work
         rdf:about="">
        <dc:format>image/svg+xml</dc:format>
        <dc:type
           rdf:resource="http://purl.org/dc/dcmitype/StillImage" />
        <dc:title />
      </cc:Work>
    </rdf:RDF>
  </metadata>
  <g
     inkscape:label="Ebene 1"
     inkscape:groupmode="layer"
     id="layer1"
     transform="translate(-120.4683,-279.20665)">
    <path
       sodipodi:type="arc"
       style="fill:#f9f9f9;stroke:#000000;stroke-width:1.50000000000000000;stroke-miterlimit:4;stroke-opacity:1;stroke-dasharray:none"
       id="path2985"
       sodipodi:cx="175.26146"
       sodipodi:cy="417.98639"
       sodipodi:rx="54.043159"
       sodipodi:ry="65.659912"
       d="m 229.30462,417.98639 c 0,36.26297 -24.19595,65.65991 -54.04316,65.65991 -29.84721,0 -54.04316,-29.39694 -54.04316,-65.65991 0,-36.26297 24.19595,-65.65991 54.04316,-65.65991 29.84721,0 54.04316,29.39694 54.04316,65.65991 z" />
    <path
       style="fill:none;stroke:#000000;stroke-width:1px;stroke-linecap:butt;stroke-linejoin:miter;stroke-opacity:1"
       d="m 180.81731,456.37218 c 0.33671,-1.34687 -0.33672,-4.37733 1.01015,-4.04061 1.34687,0.33672 -2.25191,4.66149 -1.01015,4.04061 1.7561,-0.87805 1.80394,-3.51762 3.03045,-5.05076 0.21035,-0.26293 0.77206,0.23809 1.01016,0 0.23809,-0.2381 -0.2381,-0.77206 0,-1.01015 0.2764,-0.2764 3.49261,0.27399 4.04061,0 0.42591,-0.21296 0.58423,-0.7972 1.01015,-1.01016 0.3653,-0.18265 4.34816,0 5.05076,0 0.33672,0 0.77206,0.2381 1.01015,0 0.2381,-0.23809 -0.23809,-0.77205 0,-1.01015 0.2381,-0.23809 0.67344,0 1.01016,0 0.33671,0 0.67343,0 1.01015,0 0.33672,0 0.67343,0 1.01015,0 0.33672,0 0.77206,-0.23809 1.01015,0 0.2381,0.2381 -0.23809,0.77206 0,1.01015 0.50508,0.50508 2.52539,-0.50507 3.03046,0 1.34687,1.34687 -1.68359,1.01016 1.01015,1.01016 1.34687,0 2.69374,0 4.04061,0 0.33672,0 0.77206,-0.2381 1.01016,0 0.23809,0.23809 -0.2381,0.77205 0,1.01015 0.47619,0.47619 1.41796,-0.30117 2.0203,0 4.20401,2.102 -1.07989,-0.0697 1.01015,2.0203 0.4762,0.47619 1.54412,-0.47619 2.02031,0 0.50508,0.50508 -0.50508,2.52538 0,3.03046 0.23809,0.2381 0.67343,0 1.01015,0"
       id="path3763"
       inkscape:connector-curvature="0" />
    <path
       sodipodi:type="arc"
       style="fill:#000000;fill-opacity:1;stroke:#000000;stroke-width:1.5;stroke-miterlimit:4;stroke-opacity:1;stroke-dasharray:none"
       id="path3765"
       sodipodi:cx="190.91884"
       sodipodi:cy="382.63104"
       sodipodi:rx="10.101525"
       sodipodi:ry="5.0507627"
       d="m 201.02036,382.63104 c 0,2.78946 -4.5226,5.05077 -10.10152,5.05077 -5.57892,0 -10.10153,-2.26131 -10.10153,-5.05077 0,-2.78946 4.52261,-5.05076 10.10153,-5.05076 5.57892,0 10.10152,2.2613 10.10152,5.05076 z" />
    <path
       transform="matrix(-1,0,0,1,640.43416,0.9289267)"
       sodipodi:type="arc"
       style="fill:#f9f9f9;stroke:#000000;stroke-width:1.50000000000000000;stroke-miterlimit:4;stroke-opacity:1;stroke-dasharray:none"
       id="path2985-3"
       sodipodi:cx="175.26146"
       sodipodi:cy="417.98639"
       sodipodi:rx="54.043159"
       sodipodi:ry="65.659912"
       d="m 229.30462,417.98639 c 0,36.26297 -24.19595,65.65991 -54.04316,65.65991 -29.84721,0 -54.04316,-29.39694 -54.04316,-65.65991 0,-36.26297 24.19595,-65.65991 54.04316,-65.65991 29.84721,0 54.04316,29.39694 54.04316,65.65991 z" />
    <path
       style="fill:none;stroke:#000000;stroke-width:1px;stroke-linecap:butt;stroke-linejoin:miter;stroke-opacity:1"
       d="m 459.61685,457.30111 c -0.33671,-1.34687 0.33672,-4.37733 -1.01015,-4.04061 -1.34687,0.33672 2.25191,4.66149 1.01015,4.04061 -1.7561,-0.87805 -1.80394,-3.51762 -3.03045,-5.05076 -0.21035,-0.26293 -0.77206,0.23809 -1.01016,0 -0.23809,-0.2381 0.2381,-0.77206 0,-1.01015 -0.2764,-0.2764 -3.49261,0.27399 -4.04061,0 -0.42591,-0.21296 -0.58423,-0.7972 -1.01015,-1.01016 -0.3653,-0.18265 -4.34816,0 -5.05076,0 -0.33672,0 -0.77206,0.2381 -1.01015,0 -0.2381,-0.23809 0.23809,-0.77205 0,-1.01015 -0.2381,-0.23809 -0.67344,0 -1.01016,0 -0.33671,0 -0.67343,0 -1.01015,0 -0.33672,0 -0.67343,0 -1.01015,0 -0.33672,0 -0.77206,-0.23809 -1.01015,0 -0.2381,0.2381 0.23809,0.77206 0,1.01015 -0.50508,0.50508 -2.52539,-0.50507 -3.03046,0 -1.34687,1.34687 1.68359,1.01016 -1.01015,1.01016 -1.34687,0 -2.69374,0 -4.04061,0 -0.33672,0 -0.77206,-0.2381 -1.01016,0 -0.23809,0.23809 0.2381,0.77205 0,1.01015 -0.47619,0.47619 -1.41796,-0.30117 -2.0203,0 -4.20401,2.102 1.07989,-0.0697 -1.01015,2.0203 -0.4762,0.47619 -1.54412,-0.47619 -2.02031,0 -0.50508,0.50508 0.50508,2.52538 0,3.03046 -0.23809,0.2381 -0.67343,0 -1.01015,0"
       id="path3763-0"
       inkscape:connector-curvature="0" />
    <path
       transform="matrix(-1,0,0,1,640.43416,0.9289267)"
       sodipodi:type="arc"
       style="fill:#000000;fill-opacity:1;stroke:#000000;stroke-width:1.5;stroke-miterlimit:4;stroke-opacity:1;stroke-dasharray:none"
       id="path3765-0"
       sodipodi:cx="190.91884"
       sodipodi:cy="382.63104"
       sodipodi:rx="10.101525"
       sodipodi:ry="5.0507627"
       d="m 201.02036,382.63104 c 0,2.78946 -4.5226,5.05077 -10.10152,5.05077 -5.57892,0 -10.10153,-2.26131 -10.10153,-5.05077 0,-2.78946 4.52261,-5.05076 10.10153,-5.05076 5.57892,0 10.10152,2.2613 10.10152,5.05076 z" />
    <path
       transform="translate(146.81476,-61.335039)"
       sodipodi:type="arc"
       style="fill:#f9f9f9;stroke:#000000;stroke-width:1.50000000000000000;stroke-miterlimit:4;stroke-opacity:1;stroke-dasharray:none"
       id="path2985-8"
       sodipodi:cx="175.26146"
       sodipodi:cy="417.98639"
       sodipodi:rx="54.043159"
       sodipodi:ry="65.659912"
       d="m 229.30462,417.98639 c 0,36.26297 -24.19595,65.65991 -54.04316,65.65991 -29.84721,0 -54.04316,-29.39694 -54.04316,-65.65991 0,-36.26297 24.19595,-65.65991 54.04316,-65.65991 29.84721,0 54.04316,29.39694 54.04316,65.65991 z" />
    <path
       transform="matrix(0.52974983,0,0,1,203.84413,-61.335039)"
       sodipodi:type="arc"
       style="fill:#000000;fill-opacity:1;stroke:#000000;stroke-width:1.5;stroke-miterlimit:4;stroke-opacity:1;stroke-dasharray:none"
       id="path3765-04"
       sodipodi:cx="190.91884"
       sodipodi:cy="382.63104"
       sodipodi:rx="10.101525"
       sodipodi:ry="5.0507627"
       d="m 201.02036,382.63104 c 0,2.78946 -4.5226,5.05077 -10.10152,5.05077 -5.57892,0 -10.10153,-2.26131 -10.10153,-5.05077 0,-2.78946 4.52261,-5.05076 10.10153,-5.05076 5.57892,0 10.10152,2.2613 10.10152,5.05076 z" />
    <path
       transform="matrix(0.52974983,0,0,1,239.14005,-61.355336)"
       sodipodi:type="arc"
       style="fill:#000000;fill-opacity:1;stroke:#000000;stroke-width:1.5;stroke-miterlimit:4;stroke-opacity:1;stroke-dasharray:none"
       id="path3765-04-2"
       sodipodi:cx="190.91884"
       sodipodi:cy="382.63104"
       sodipodi:rx="10.101525"
       sodipodi:ry="5.0507627"
       d="m 201.02036,382.63104 c 0,2.78946 -4.5226,5.05077 -10.10152,5.05077 -5.57892,0 -10.10153,-2.26131 -10.10153,-5.05077 0,-2.78946 4.52261,-5.05076 10.10153,-5.05076 5.57892,0 10.10152,2.2613 10.10152,5.05076 z" />
    <path
       style="fill:none;stroke:#000000;stroke-width:1px;stroke-linecap:butt;stroke-linejoin:miter;stroke-opacity:1"
       d="m 145.46197,92.981491 c -1.34687,1.010152 -3.03046,4.377327 -4.04061,3.030457 -1.01016,-1.34687 5.23108,-4.220934 4.04061,-3.030457 -1.52456,1.524553 -3.52621,2.516056 -5.05077,4.04061 -0.23809,0.238095 0.2381,0.772057 0,1.010152 -0.47619,0.476191 -1.54411,-0.47619 -2.0203,0 -0.2381,0.238096 0.23809,0.772058 0,1.010153 -0.2381,0.238095 -0.67344,0 -1.01015,0 -0.67344,0.336717 -1.48791,0.477755 -2.02031,1.010154 -0.23809,0.23809 0.15059,0.70898 0,1.01015 -2.102,4.20401 0.0697,-1.079888 -2.0203,1.01015 -0.2381,0.2381 0.23809,0.77206 0,1.01016 -0.2381,0.23809 -0.77206,-0.2381 -1.01016,0 -0.23809,0.23809 0.15059,0.70898 0,1.01015 -0.21296,0.42592 -0.79719,0.58423 -1.01015,1.01015 -0.15058,0.30117 0.2381,0.77206 0,1.01015 -0.23809,0.2381 -0.77206,-0.23809 -1.01015,0 -0.2381,0.2381 0.23809,0.77206 0,1.01016 -0.50508,0.50507 -2.52538,-0.50508 -3.03046,0 -0.23809,0.23809 0.2381,0.77205 0,1.01015 -0.47619,0.47619 -1.54411,-0.47619 -2.0203,0 -0.2381,0.23809 0.23809,0.77206 0,1.01015 -0.2381,0.2381 -0.77206,-0.23809 -1.01016,0 -0.23809,0.2381 0.2381,0.77206 0,1.01015 -0.23809,0.2381 -0.77205,-0.23809 -1.01015,0 -0.23809,0.2381 0.2381,0.77206 0,1.01016 -0.47619,0.47619 -1.54411,-0.47619 -2.0203,0 -0.2381,0.23809 0.23809,0.77205 0,1.01015 -0.2381,0.23809 -0.77206,-0.2381 -1.01016,0 -0.23809,0.23809 0.2381,0.77206 0,1.01015 -2.09004,2.09004 0.0817,-3.19386 -2.0203,1.01015 -0.30117,0.60234 0.30117,1.41797 0,2.02031 -0.21296,0.42592 -0.7972,0.58423 -1.01015,1.01015 -0.15059,0.30117 0.23809,0.77206 0,1.01015 -0.50508,0.50508 -2.52539,-0.50507 -3.03046,0 -0.2381,0.2381 0.23809,0.77206 0,1.01016 -0.2381,0.23809 -0.77206,-0.2381 -1.01015,0 -0.2381,0.23809 0.23809,0.77205 0,1.01015 -0.2381,0.23809 -0.77206,-0.2381 -1.01016,0 -0.23809,0.23809 0.2381,0.77206 0,1.01015 -1.34687,1.34687 -1.01015,-1.68359 -1.01015,1.01015"
       id="path4151"
       inkscape:connector-curvature="0"
       transform="translate(120.4683,279.20665)" />
    <path
       style="fill:none;stroke:#000000;stroke-width:1px;stroke-linecap:butt;stroke-linejoin:miter;stroke-opacity:1"
       d="m 378.1143,364.6923 c 1.34687,1.01016 3.03046,4.37733 4.04061,3.03046 1.01016,-1.34687 -5.23108,-4.22093 -4.04061,-3.03046 1.52456,1.52456 3.52621,2.51606 5.05077,4.04061 0.23809,0.2381 -0.2381,0.77206 0,1.01016 0.47619,0.47619 1.54411,-0.47619 2.0203,0 0.2381,0.23809 -0.23809,0.77205 0,1.01015 0.2381,0.23809 0.67344,0 1.01015,0 0.67344,0.33672 1.48791,0.47775 2.02031,1.01015 0.23809,0.23809 -0.15059,0.70898 0,1.01015 2.102,4.20401 -0.0697,-1.07988 2.0203,1.01015 0.2381,0.2381 -0.23809,0.77206 0,1.01016 0.2381,0.23809 0.77206,-0.2381 1.01016,0 0.23809,0.23809 -0.15059,0.70898 0,1.01015 0.21296,0.42592 0.79719,0.58423 1.01015,1.01015 0.15058,0.30117 -0.2381,0.77206 0,1.01015 0.23809,0.2381 0.77206,-0.23809 1.01015,0 0.2381,0.2381 -0.23809,0.77206 0,1.01016 0.50508,0.50507 2.52538,-0.50508 3.03046,0 0.23809,0.23809 -0.2381,0.77205 0,1.01015 0.47619,0.47619 1.54411,-0.47619 2.0203,0 0.2381,0.23809 -0.23809,0.77206 0,1.01015 0.2381,0.2381 0.77206,-0.23809 1.01016,0 0.23809,0.2381 -0.2381,0.77206 0,1.01015 0.23809,0.2381 0.77205,-0.23809 1.01015,0 0.23809,0.2381 -0.2381,0.77206 0,1.01016 0.47619,0.47619 1.54411,-0.47619 2.0203,0 0.2381,0.23809 -0.23809,0.77205 0,1.01015 0.2381,0.23809 0.77206,-0.2381 1.01016,0 0.23809,0.23809 -0.2381,0.77206 0,1.01015 2.09004,2.09004 -0.0817,-3.19386 2.0203,1.01015 0.30117,0.60234 -0.30117,1.41797 0,2.02031 0.21296,0.42592 0.7972,0.58423 1.01015,1.01015 0.15059,0.30117 -0.23809,0.77206 0,1.01015 0.50508,0.50508 2.52539,-0.50507 3.03046,0 0.2381,0.2381 -0.23809,0.77206 0,1.01016 0.2381,0.23809 0.77206,-0.2381 1.01015,0 0.2381,0.23809 -0.23809,0.77205 0,1.01015 0.2381,0.23809 0.77206,-0.2381 1.01016,0 0.23809,0.23809 -0.2381,0.77206 0,1.01015 1.34687,1.34687 1.01015,-1.68359 1.01015,1.01015"
       id="path4151-9"
       inkscape:connector-curvature="0" />
  </g>
</svg>
