<?xml version="1.0" encoding="UTF-8" standalone="no"?>
<!-- Created with Inkscape (http://www.inkscape.org/) -->

<svg
   xmlns:dc="http://purl.org/dc/elements/1.1/"
   xmlns:cc="http://creativecommons.org/ns#"
   xmlns:rdf="http://www.w3.org/1999/02/22-rdf-syntax-ns#"
   xmlns:svg="http://www.w3.org/2000/svg"
   xmlns="http://www.w3.org/2000/svg"
   xmlns:sodipodi="http://sodipodi.sourceforge.net/DTD/sodipodi-0.dtd"
   xmlns:inkscape="http://www.inkscape.org/namespaces/inkscape"
   width="450"
   height="428.28738"
   id="svg2"
   version="1.1"
   inkscape:version="0.48.3.1 r9886"
   sodipodi:docname="Neues Dokument 1">
  <defs
     id="defs4" />
  <sodipodi:namedview
     id="base"
     pagecolor="#ffffff"
     bordercolor="#666666"
     borderopacity="1.0"
     inkscape:pageopacity="0.0"
     inkscape:pageshadow="2"
     inkscape:zoom="0.7"
     inkscape:cx="76.460535"
     inkscape:cy="27.499581"
     inkscape:document-units="px"
     inkscape:current-layer="layer1"
     showgrid="false"
     fit-margin-top="0"
     fit-margin-left="0"
     fit-margin-right="0"
     fit-margin-bottom="0"
     inkscape:window-width="1680"
     inkscape:window-height="1026"
     inkscape:window-x="0"
     inkscape:window-y="24"
     inkscape:window-maximized="1" />
  <metadata
     id="metadata7">
    <rdf:RDF>
      <cc:Work
         rdf:about="">
        <dc:format>image/svg+xml</dc:format>
        <dc:type
           rdf:resource="http://purl.org/dc/dcmitype/StillImage" />
        <dc:title></dc:title>
      </cc:Work>
    </rdf:RDF>
  </metadata>
  <g
     inkscape:label="Ebene 1"
     inkscape:groupmode="layer"
     id="layer1"
     transform="translate(-142.14286,-320.21933)">
    <path
       sodipodi:type="arc"
       style="fill:#d20f0d;fill-opacity:1"
       id="path2985"
       sodipodi:cx="296.42856"
       sodipodi:cy="390.21933"
       sodipodi:rx="52.142857"
       sodipodi:ry="42.142857"
       d="m 348.57141,390.21933 c 0,23.27486 -23.34515,42.14286 -52.14285,42.14286 -28.79771,0 -52.14286,-18.868 -52.14286,-42.14286 0,-23.27486 23.34515,-42.14286 52.14286,-42.14286 28.7977,0 52.14285,18.868 52.14285,42.14286 z"
       transform="translate(67.142857,-7.1428571)" />
    <path
       style="fill:#000000;fill-opacity:1"
       d="m 210.31871,747.7535 c -0.40016,-0.44432 -8.91859,-1.28219 -18.92986,-1.86194 -23.37572,-1.35371 -22.86588,-0.90067 -24.17514,-21.48155 -1.12601,-17.70015 -1.51866,-91.94632 -0.81949,-154.95663 0.68806,-62.00911 -0.67451,-95.9688 -4.49812,-112.10765 -1.98391,-8.3738 -2.61229,-13.41884 -1.80577,-14.49789 0.68033,-0.91024 4.60141,-3.54681 8.71348,-5.8591 7.24063,-4.0715 8.04882,-4.20086 25.61528,-4.10026 22.40685,0.1283 35.67176,3.1813 39.30479,9.04614 3.82118,6.1686 11.23658,21.87068 16.10845,34.10964 10.92185,27.43746 27.44104,62.95676 35.9366,77.27028 12.15616,20.48098 21.25888,30.49329 34.05252,37.45527 16.59775,9.03204 23.26891,11.05386 36.42977,11.04068 27.59843,-0.0276 45.28773,-4.93637 62.39971,-17.31573 8.13458,-5.88482 21.05585,-20.9092 27.06999,-31.47602 7.02411,-12.34131 19.96325,-39.16341 23.99573,-49.74183 2.41298,-6.32991 6.83644,-16.36429 9.82994,-22.29857 2.99349,-5.93431 6.46964,-14.35022 7.72478,-18.70206 2.51676,-8.72622 7.11825,-16.84651 15.44652,-27.25861 3.01502,-3.76942 6.37007,-8.26156 7.45566,-9.98251 1.78023,-2.82215 3.82284,-3.28754 20.82645,-4.74522 14.88933,-1.27644 20.49898,-1.22826 26.68398,0.22916 13.80432,3.25279 12.44435,-13.80888 12.62335,158.36804 l 0.15671,150.8355 -7.01309,5.82355 -7.0131,5.82353 -22.96742,-0.49137 c -13.10141,-0.28032 -24.0701,-1.15869 -25.53435,-2.04478 -4.7924,-2.90012 -12.04023,-12.53644 -17.02925,-22.64111 -4.42808,-8.96859 -5.08868,-11.64424 -6.03813,-24.45652 -1.85217,-24.99409 -1.43257,-49.16728 1.01433,-58.43452 1.65212,-6.25714 1.57441,-6.97926 -1.33354,-12.39391 -2.64356,-4.9223 -3.88465,-5.87 -8.62505,-6.58608 -10.72101,-1.61945 -19.53978,2.66445 -39.06028,18.97427 -7.73387,6.46183 -12.27197,15.38413 -33.62285,15.30648 l -9.28079,-0.0337 -19.85979,0.061 c -27.85273,0.0855 -37.62217,1.15416 -53.55277,-9.53356 -5.33393,-3.57851 -9.93325,-5.67586 -11.83871,-5.3986 -1.86423,0.27125 -4.90695,-1.06337 -7.57404,-3.32216 -5.29905,-4.48787 -16.47122,-7.96221 -28.97866,-9.01186 -4.98816,-0.41861 -10.23543,-1.10004 -11.66063,-1.51428 -1.47988,-0.43014 -3.77752,0.3658 -5.35717,1.8558 -2.57376,2.42772 -2.78849,4.1514 -3.09066,24.81112 -0.17867,12.2112 0.0606,34.17868 0.53144,48.81663 0.6598,20.50966 0.47098,27.43941 -0.82324,30.21099 -1.13099,2.42204 -7.17092,6.75373 -18.49553,13.26452 -15.48297,8.90155 -21.03282,11.0655 -22.94212,8.94549 l 0,0 z"
       id="path3770"
       inkscape:connector-curvature="0"
       sodipodi:nodetypes="csssssssssssssssssssssscccssssssssscsssssssssssccc" />
    <path
       sodipodi:type="arc"
       style="fill:#000000;fill-opacity:1"
       id="path2985-2"
       sodipodi:cx="296.42856"
       sodipodi:cy="390.21933"
       sodipodi:rx="52.142857"
       sodipodi:ry="42.142857"
       d="m 348.57141,390.21933 c 0,23.27486 -23.34515,42.14286 -52.14285,42.14286 -28.79771,0 -52.14286,-18.868 -52.14286,-42.14286 0,-23.27486 23.34515,-42.14286 52.14286,-42.14286 28.7977,0 52.14285,18.868 52.14285,42.14286 z"
       transform="translate(243.57144,-27.857146)" />
    <path
       sodipodi:type="arc"
       style="fill:#000000;fill-opacity:1"
       id="path2985-6"
       sodipodi:cx="296.42856"
       sodipodi:cy="390.21933"
       sodipodi:rx="52.142857"
       sodipodi:ry="42.142857"
       d="m 348.57141,390.21933 c 0,23.27486 -23.34515,42.14286 -52.14285,42.14286 -28.79771,0 -52.14286,-18.868 -52.14286,-42.14286 0,-23.27486 23.34515,-42.14286 52.14286,-42.14286 28.7977,0 52.14285,18.868 52.14285,42.14286 z"
       transform="translate(-102.14284,-16.428572)" />
  </g>
</svg>
